<?xml version="1.0" encoding="UTF-8" standalone="no"?>
<svg width="256" height="256" viewBox="0 0 256 256" version="1.1" xmlns="http://www.w3.org/2000/svg">
    <g fill="#092E20">
        <path d="M90.9,36.3v22.8l22.4,0.2v66.4c-7.7-0.8-13.3-2.4-19.4-4.8c-17.9-7.2-33.1-22.9-39.4-40.8c-4.1-12-4.6-30.9-1-42.9 c3.8-12.9,11.8-23.7,23.2-31.4c9.2-6.2,19.4-9.9,31.1-11.3c13.3-1.6,26.9,0.3,39.2,5.8c7,3.1,17.2,9.6,22.3,14.3l-9.8,18.4 c-14.3-11.8-31-17.9-49.3-17.9C103.2,15,95.1,23.4,90.9,36.3z"/>
        <path d="M201.1,89.5v34.7c0,19.5-1.4,30.3-5.7,39.1c-4,8.5-9.3,13.9-20.1,19.4c-8.5,4.3-17.7,6.5-27.7,6.5 c-18.4,0-32.7-5.8-43.4-17.5l13.6-16.3c8.3,8.4,17.3,12.4,28.1,12.4c8.9,0,16.1-2.3,21.2-7c5.2-4.8,6.9-10.3,6.9-22.6v-6.4 c-9,4.2-18.5,6.2-28.3,6.2c-13.7,0-25.5-4.5-34.8-13.4c-9.5-9.1-14.2-20.3-14.2-33.7c0-13.1,5.1-24.7,15.2-34.4 c9.5-9.1,20.8-13.7,34.1-13.7c8.7,0,18.7,2.4,28.1,6.6l6.5-4.7h15.6v44.7H201.1z M175.8,89.5V67.1c-6.9-3.3-13.9-4.9-21-4.9 c-8.3,0-15.3,2.7-20.9,8.2c-5.5,5.4-8.2,12.1-8.2,20.3c0,8.1,2.7,14.7,8,19.9c5.2,5,11.8,7.6,19.7,7.6c7.8,0,15.4-2.2,22.4-6.6 L175.8,89.5L175.8,89.5z"/>
    </g>
</svg>