<svg viewBox="0 0 600 596" xmlns="http://www.w3.org/2000/svg" xml:space="preserve" style="fill-rule:evenodd;clip-rule:evenodd;stroke-linejoin:round;stroke-miterlimit:2">
  <path style="fill:none" d="M0 0h599.483v595.349H0z"/>
  <text x="366.691" y="568.422" style="font-family:'Shrikhand-Regular','Shrikhand';font-size:150.277px;fill:#002c17" transform="matrix(.73335 0 0 1 -209.397 0)">E<tspan x="466.024" y="568.422">N</tspan>V</text>
  <path d="M480.428 160.368v206.958c0 71.309-5.217 105.511-20.869 135.078-14.495 28.412-33.629 46.379-73.047 66.092l-82.903-39.422c39.423-18.55 58.552-34.778 70.726-59.715 12.756-25.507 16.818-55.074 16.818-132.756V160.368h89.275ZM338.402 22.496v413.245c-45.799 8.695-79.425 12.173-115.945 12.173-108.992 0-165.805-49.273-165.805-143.773 0-91.018 60.295-150.146 153.628-150.146 14.492 0 25.506 1.155 38.842 4.634V22.496h89.28Zm-119.423 203.38c-45.219 0-71.309 27.828-71.309 76.522 0 47.542 24.93 73.628 70.729 73.628 9.851 0 17.97-.58 30.723-2.315V230.51c-10.434-3.475-19.129-4.634-30.143-4.634ZM480.428 22.971v91.598h-89.275V22.971h89.275Z" style="fill:#002c17;fill-rule:nonzero"/>
</svg>